<svg xmlns="http://www.w3.org/2000/svg" width="48" height="48" fill="none">
  <defs>
    <clipPath id="a">
      <path fill="#fff" fill-opacity="0" d="M0 0h48v48H0z"/>
    </clipPath>
  </defs>
  <path d="M0 0h48v48H0z"/>
  <g clip-path="url(#a)">
    <path fill="#2B7FFF" d="M44.53 15.48c-.38-.34-.84-.56-1.33-.63-.49-.08-.98 0-1.43.22l-9.47 4.62c-.04.03-.09.04-.13.05-.05 0-.1 0-.14-.02-.05-.01-.09-.04-.13-.07l-.09-.12L26.28 8.6a2.7 2.7 0 0 0-.96-1.1c-.4-.26-.86-.4-1.32-.4-.47 0-.93.14-1.34.4-.4.27-.73.64-.95 1.1l-5.53 10.93-.09.12c-.04.03-.08.06-.13.07-.04.02-.09.02-.14.02-.04-.01-.09-.02-.13-.05l-9.47-4.62a2.444 2.444 0 0 0-2.75.4c-.38.35-.67.8-.82 1.31a3.18 3.18 0 0 0-.07 1.59l4.78 22.34c.08.38.23.73.44 1.04.21.32.48.58.78.77.4.27.86.42 1.33.42.24-.01.48-.04.72-.11a45.863 45.863 0 0 1 26.71-.02c.35.11.7.14 1.06.09.35-.04.69-.17.99-.37.31-.19.58-.46.79-.77.21-.31.36-.67.45-1.05l4.76-22.34c.12-.52.1-1.07-.05-1.58-.16-.51-.44-.96-.81-1.31Zm-1.32 2.31-4.78 22.34c-.02.11-.08.2-.17.27-.09.05-.2.06-.3.04a47.81 47.81 0 0 0-27.93 0c-.05.02-.1.02-.16.01-.05 0-.1-.02-.14-.05a.426.426 0 0 1-.11-.12.339.339 0 0 1-.06-.15L4.78 17.79a.544.544 0 0 1 0-.18.38.38 0 0 1 .08-.17c.03-.05.08-.09.13-.12.05-.02.1-.04.16-.04l.15.04 9.49 4.64c.6.3 1.27.33 1.9.1.62-.22 1.14-.7 1.45-1.34l5.54-10.93c.03-.06.07-.12.13-.16.05-.03.12-.05.19-.05.06 0 .13.02.18.05.06.04.1.1.13.16l5.53 10.93c.32.64.84 1.12 1.46 1.34.62.23 1.3.2 1.9-.1l9.49-4.64a.34.34 0 0 1 .2-.03c.07.01.14.04.19.09.06.05.1.11.12.19.03.07.03.15.01.22ZM31.12 33.47c-.03.3-.16.59-.37.79-.21.21-.48.32-.75.32h-.12c-3.91-.43-7.86-.43-11.77 0-.3.04-.59-.06-.83-.26-.23-.21-.38-.5-.41-.83-.03-.33.06-.65.25-.91.19-.25.47-.41.76-.45 4.07-.48 8.16-.48 12.23 0 .29.04.56.2.75.45.19.24.28.57.26.89Z"/>
  </g>
</svg>
