<svg xmlns="http://www.w3.org/2000/svg" width="32" height="32" fill="none">
  <defs>
    <clipPath id="a">
      <path fill="#fff" fill-opacity="0" d="M0-.5h32v32H0z"/>
    </clipPath>
  </defs>
  <path d="M0-.5h32v32H0z"/>
  <g clip-path="url(#a)">
    <path fill="#011C44" d="M23.98 1.62a38.95 38.95 0 0 0-4.05-.21c-4.48 0-7.27 2.86-7.27 7.46v3.12H8.89c-.17 0-.34.07-.47.19-.12.13-.19.3-.19.48v5.13a.665.665 0 0 0 .66.67h3.77v10.29c0 .18.07.35.2.47.12.13.29.2.47.2h5.3c.18 0 .35-.07.47-.2.13-.12.2-.29.2-.47V18.46h3.75c.17 0 .32-.06.44-.17.13-.11.2-.25.23-.41l.66-5.14c.01-.09 0-.19-.03-.28a.564.564 0 0 0-.13-.24.658.658 0 0 0-.23-.17.626.626 0 0 0-.27-.06H19.3V9.38c0-1.3.26-1.84 1.88-1.84h2.71c.18 0 .35-.07.48-.19.12-.13.19-.3.19-.47v-4.6a.72.72 0 0 0-.16-.44.691.691 0 0 0-.42-.22Zm-.75 4.59h-2.05c-2.88 0-3.21 1.81-3.21 3.17v3.28c0 .17.07.34.19.47.13.12.29.19.47.19h4.33l-.49 3.8h-3.84a.668.668 0 0 0-.66.67v10.29H14V17.79c0-.18-.08-.35-.2-.47a.65.65 0 0 0-.47-.2H9.56v-3.8h3.77c.18 0 .34-.07.47-.19.12-.13.2-.3.2-.47V8.87c0-3.83 2.22-6.12 5.93-6.12 1.35 0 2.56.07 3.3.14v3.32Z"/>
  </g>
</svg>
