<svg xmlns="http://www.w3.org/2000/svg" width="48" height="48" fill="none">
  <defs>
    <clipPath id="a">
      <path fill="#fff" fill-opacity="0" d="M0 0h48v48H0z"/>
    </clipPath>
  </defs>
  <path d="M0 0h48v48H0z"/>
  <g clip-path="url(#a)">
    <path fill="#2B7FFF" d="M24.09 2.09c-1.58 0-3.05.72-4.3 1.9-1.26 1.17-2.33 2.81-3.22 4.79-.19.41-.37.85-.54 1.29-.46-.07-.93-.13-1.39-.18-.54-.05-1.07-.09-1.58-.1-1.54-.04-2.95.12-4.18.49-1.65.5-3 1.42-3.79 2.78-.79 1.37-.9 3-.51 4.67s1.27 3.42 2.54 5.19c.26.37.55.74.85 1.11-.3.36-.58.73-.85 1.11-1.27 1.77-2.15 3.51-2.54 5.19-.39 1.67-.28 3.3.51 4.67.79 1.36 2.14 2.28 3.79 2.78 1.64.49 3.6.61 5.76.39.45-.05.92-.11 1.39-.18.16.44.34.87.54 1.29.89 1.98 1.96 3.62 3.22 4.8 1.25 1.17 2.72 1.89 4.3 1.89 1.57 0 3.04-.72 4.3-1.89 1.25-1.18 2.32-2.82 3.22-4.8.19-.42.37-.85.54-1.29.47.07.93.13 1.38.18 2.17.22 4.12.1 5.76-.39 1.65-.5 3.01-1.42 3.79-2.78.79-1.37.9-3 .51-4.67s-1.27-3.42-2.53-5.19c-.28-.38-.56-.75-.85-1.11.29-.36.57-.73.85-1.11 1.26-1.77 2.15-3.52 2.54-5.19.39-1.67.27-3.3-.52-4.67-.78-1.36-2.14-2.28-3.78-2.78-1.24-.37-2.64-.53-4.18-.49-.52.01-1.04.05-1.59.1-.45.04-.91.11-1.38.18-.17-.44-.35-.87-.54-1.29-.9-1.98-1.97-3.62-3.22-4.79-1.26-1.18-2.73-1.9-4.3-1.9Zm0 1.76c1.05 0 2.08.46 3.1 1.42 1.02.95 1.99 2.4 2.82 4.23.14.3.26.6.38.9-2 .45-4.13 1.13-6.3 2.05-2.18-.91-4.3-1.6-6.31-2.05.12-.31.25-.61.38-.9.83-1.83 1.8-3.28 2.82-4.24 1.03-.95 2.06-1.41 3.11-1.41ZM12.5 11.54h.52c.46.01.94.04 1.44.09.32.03.65.08.98.12-.62 1.97-1.09 4.15-1.38 6.49-1.88 1.42-3.54 2.92-4.93 4.44-.2-.26-.4-.52-.59-.79-1.17-1.63-1.94-3.19-2.26-4.56-.32-1.36-.2-2.48.33-3.39.52-.91 1.44-1.57 2.77-1.98.88-.27 1.94-.41 3.12-.42Zm23.17 0c1.19.01 2.24.15 3.12.42 1.34.41 2.25 1.07 2.78 1.98.52.91.64 2.03.32 3.39-.32 1.37-1.09 2.93-2.26 4.56-.19.27-.39.53-.59.79-1.39-1.52-3.05-3.01-4.92-4.44-.3-2.34-.77-4.52-1.39-6.49.33-.04.66-.09.98-.12.48-.05.96-.08 1.45-.09h.51Zm-4.68.53c.47 1.45.85 3.04 1.14 4.75-.93-.63-1.88-1.22-2.85-1.78-.97-.56-1.97-1.09-2.97-1.58 1.62-.61 3.2-1.07 4.68-1.39Zm-13.81 0c1.49.32 3.06.78 4.69 1.39-1.01.49-2 1.02-2.98 1.58-.97.56-1.92 1.15-2.85 1.78.29-1.71.68-3.3 1.14-4.75Zm6.91 2.29c1.42.63 2.87 1.36 4.31 2.19 1.44.84 2.8 1.73 4.06 2.65.17 1.55.26 3.16.26 4.83s-.09 3.28-.26 4.83c-1.26.92-2.61 1.81-4.06 2.64-1.44.84-2.89 1.57-4.31 2.2-1.43-.63-2.88-1.36-4.32-2.2a45.06 45.06 0 0 1-4.06-2.64 46.843 46.843 0 0 1 0-9.66c1.26-.92 2.62-1.81 4.06-2.65 1.44-.83 2.89-1.56 4.32-2.19ZM24.2 17l-5.01 3.09 5.01 3.1 5.02-3.1L24.2 17Zm-10.38 3.67a47.145 47.145 0 0 0 0 6.72c-1.33-1.1-2.53-2.23-3.55-3.36 1.02-1.13 2.21-2.26 3.55-3.36Zm20.53 0c1.34 1.1 2.53 2.23 3.55 3.36a32.953 32.953 0 0 1-3.55 3.36 47.145 47.145 0 0 0 0-6.72Zm-16.29.78v6.12l5.27 3.25v-6.11l-5.27-3.26Zm12.29.01-5.27 3.25v6.11l5.27-3.25v-6.11ZM9.13 25.38c1.39 1.52 3.05 3.01 4.93 4.44.29 2.34.76 4.52 1.38 6.49l-.98.12c-1.99.2-3.73.07-5.07-.33-1.34-.41-2.26-1.07-2.78-1.98-.53-.91-.64-2.03-.33-3.39.32-1.37 1.09-2.94 2.26-4.57.19-.26.39-.52.59-.78Zm29.91 0c.21.26.41.52.59.78 1.17 1.63 1.94 3.2 2.26 4.57.32 1.36.2 2.48-.32 3.39-.53.91-1.44 1.57-2.78 1.98-1.34.4-3.08.52-5.08.33l-.98-.12c.62-1.97 1.09-4.15 1.39-6.49 1.87-1.43 3.53-2.92 4.92-4.44Zm-6.91 5.86c-.29 1.71-.67 3.3-1.14 4.75a33.37 33.37 0 0 1-4.68-1.39c1.01-.49 2-1.02 2.97-1.58.97-.56 1.92-1.15 2.85-1.78Zm-16.09 0c.93.63 1.88 1.22 2.85 1.78.98.56 1.97 1.09 2.98 1.58-1.63.61-3.2 1.07-4.69 1.39-.47-1.45-.85-3.04-1.14-4.75Zm8.1.08.06.04.07-.04h-.13Zm-.05 4.29c2.17.91 4.3 1.6 6.3 2.05-.12.3-.24.6-.38.9-.83 1.83-1.8 3.28-2.82 4.24-1.02.95-2.05 1.41-3.1 1.41-1.05 0-2.08-.46-3.11-1.41-1.02-.96-1.99-2.41-2.82-4.24-.13-.3-.26-.6-.38-.9 2.01-.45 4.13-1.14 6.31-2.05Z"/>
  </g>
</svg>
