<svg aria-hidden="true" style="position: absolute; width: 0; height: 0; overflow: hidden;" version="1.1" xmlns="http://www.w3.org/2000/svg" xmlns:xlink="http://www.w3.org/1999/xlink">
<defs>
<symbol id="icon-arrow" viewBox="0 0 42 32">
<path d="M6.562 15.769l12.185-12.185c0.96-0.985 0.96-2.511 0-3.495-0.443-0.456-1.062-0.739-1.748-0.739s-1.304 0.283-1.747 0.738l-0.001 0.001-13.908 13.932c-0.985 0.96-0.985 2.511 0 3.471l13.908 13.932c0.985 0.985 2.511 0.985 3.495 0 0.96-0.985 0.96-2.511 0-3.495l-12.185-12.16z"></path>
<path d="M9.023 13.308l9.723-9.723c0.96-0.985 0.96-2.511 0-3.495-0.443-0.456-1.062-0.739-1.748-0.739s-1.304 0.283-1.747 0.738l-0.001 0.001-13.908 13.932c-0.985 0.96-0.985 2.511 0 3.471l13.908 13.932c0.985 0.985 2.511 0.985 3.495 0 0.96-0.985 0.96-2.511 0-3.495l-9.723-9.698h35.323v-4.923h-35.323z"></path>
</symbol>
<symbol id="icon-facebook" viewBox="0 0 32 32">
<path d="M23.98 1.62c-1.212-0.134-2.616-0.21-4.039-0.21-0.004 0-0.008 0-0.011 0h0.001c-4.48 0-7.27 2.86-7.27 7.46v3.12h-3.77c-0.17 0-0.34 0.070-0.47 0.19-0.12 0.13-0.19 0.3-0.19 0.48v5.13c0 0.002-0 0.003-0 0.005 0 0.366 0.295 0.662 0.66 0.665h3.77v10.29c0 0.18 0.070 0.35 0.2 0.47 0.12 0.13 0.29 0.2 0.47 0.2h5.3c0.18 0 0.35-0.070 0.47-0.2 0.13-0.12 0.2-0.29 0.2-0.47v-10.29h3.75c0.17 0 0.32-0.060 0.44-0.17 0.13-0.11 0.2-0.25 0.23-0.41l0.66-5.14c0.010-0.090 0-0.19-0.030-0.28-0.025-0.093-0.070-0.174-0.13-0.24l0 0c-0.062-0.072-0.139-0.129-0.226-0.168l-0.004-0.002c-0.078-0.038-0.17-0.060-0.267-0.060-0.001 0-0.002 0-0.003 0h-4.42v-2.61c0-1.3 0.26-1.84 1.88-1.84h2.71c0.18 0 0.35-0.070 0.48-0.19 0.12-0.13 0.19-0.3 0.19-0.47v-4.6c-0.003-0.168-0.063-0.321-0.161-0.441l0.001 0.001c-0.107-0.117-0.252-0.197-0.416-0.22l-0.004-0zM23.23 6.21h-2.050c-2.88 0-3.21 1.81-3.21 3.17v3.28c0 0.17 0.070 0.34 0.19 0.47 0.13 0.12 0.29 0.19 0.47 0.19h4.33l-0.49 3.8h-3.84c-0.365 0.005-0.66 0.302-0.66 0.668 0 0.001 0 0.001 0 0.002v-0 10.29h-3.97v-10.29c0-0.18-0.080-0.35-0.2-0.47-0.118-0.123-0.285-0.2-0.469-0.2-0 0-0.001 0-0.001 0h-3.77v-3.8h3.77c0.18 0 0.34-0.070 0.47-0.19 0.12-0.13 0.2-0.3 0.2-0.47v-3.79c0-3.83 2.22-6.12 5.93-6.12 1.35 0 2.56 0.070 3.3 0.14v3.32z"></path>
</symbol>
<symbol id="icon-instagram" viewBox="0 0 32 32">
<path d="M16 9.75c-1.14 0-2.25 0.33-3.2 0.96-0.95 0.64-1.68 1.53-2.12 2.58-0.274 0.648-0.434 1.401-0.434 2.192 0 0.403 0.041 0.796 0.12 1.176l-0.006-0.037c0.232 1.159 0.788 2.163 1.57 2.94l0 0c0.8 0.81 1.83 1.35 2.94 1.57 1.12 0.23 2.27 0.11 3.33-0.32 1.068-0.454 1.945-1.183 2.567-2.1l0.013-0.020c0.63-0.95 0.97-2.060 0.97-3.19-0.001-3.175-2.575-5.749-5.75-5.75h-0zM16 19.75c-0.003 0-0.006 0-0.009 0-1.761 0-3.271-1.074-3.911-2.602l-0.010-0.028c-0.32-0.78-0.41-1.63-0.24-2.45 0.336-1.692 1.648-3.004 3.313-3.336l0.027-0.004c0.82-0.17 1.67-0.080 2.45 0.24 1.556 0.65 2.63 2.16 2.63 3.921 0 0.003 0 0.006 0 0.009v-0.001c-0.010 1.12-0.46 2.2-1.25 3-0.8 0.79-1.88 1.24-3 1.25zM21.5 3.25h-11c-1.8 0-3.51 0.71-4.78 1.97-1.217 1.225-1.97 2.913-1.97 4.776 0 0.001 0 0.003 0 0.004v-0 11c0 1.79 0.71 3.5 1.97 4.77 1.225 1.221 2.914 1.977 4.779 1.98h11.001c1.79 0 3.5-0.72 4.77-1.98 1.219-1.222 1.975-2.907 1.98-4.769v-11.001c0-1.8-0.72-3.51-1.98-4.78-1.223-1.217-2.908-1.969-4.77-1.97h-0zM26.75 21c0 1.39-0.56 2.72-1.54 3.71-0.951 0.948-2.261 1.535-3.709 1.54h-11.001c-1.4 0-2.73-0.56-3.72-1.54-0.945-0.952-1.529-2.263-1.53-3.71v-11c0-1.4 0.55-2.73 1.53-3.72 0.99-0.98 2.32-1.53 3.72-1.53h11c1.39 0 2.72 0.55 3.71 1.53 0.98 0.99 1.54 2.32 1.54 3.72v11zM23.75 9c0 0.24-0.080 0.48-0.22 0.69-0.13 0.2-0.33 0.37-0.56 0.46-0.22 0.090-0.48 0.12-0.72 0.070-0.251-0.055-0.468-0.175-0.64-0.34l0 0c-0.17-0.18-0.29-0.4-0.34-0.64s-0.020-0.49 0.070-0.72c0.193-0.456 0.637-0.77 1.154-0.77 0.002 0 0.004 0 0.006 0h-0c0.33 0 0.64 0.13 0.88 0.36 0.23 0.24 0.37 0.55 0.37 0.89z"></path>
</symbol>
<symbol id="icon-telephone" viewBox="0 0 32 32">
<path d="M27.65 22.45l-0.17-0.21c-1.38-1.74-2.52-2.64-3.51-2.76-0.85-0.12-1.67 0.47-2.54 1.080l-0.94 0.58c-0.11 0.060-0.22 0.1-0.33 0.13-0.54 0.16-1.92 0.25-2.7-0.47-0.91-0.83-2.32-2.35-3.42-3.68-1.050-1.38-2.2-3.1-2.8-4.18-0.51-0.91-0.090-2.19 0.2-2.67 0.050-0.090 0.13-0.18 0.21-0.27l0.82-0.77c0.020-0.010 0.020-0.020 0.030-0.030s0.020-0.010 0.030-0.020c0.75-0.62 1.52-1.27 1.62-2.1 0.12-0.98-0.48-2.3-1.86-4.030l-0.16-0.22c-0.86-1.090-2.14-2.74-3.99-2.46-0.73 0.1-1.38 0.35-2.050 0.77 0 0.010-0.010 0.010-0.010 0.020-0.010 0-0.010 0-0.020 0.010l-0.93 0.69c-0.010 0-0.020 0.010-0.020 0.020-0.010 0.010-0.020 0.010-0.030 0.020-0.11 0.090-0.22 0.18-0.32 0.28-0.95 0.84-2.99 3.29-1.6 7.81 0.9 2.92 2.76 6.33 5.39 9.88l-0.030 0.020 1.45 1.81 0.020-0.010c2.84 3.37 5.74 5.98 8.4 7.55 1.78 1.060 3.32 1.41 4.6 1.41 1.68 0 2.88-0.61 3.48-1l0.38-0.25c0.040-0.030 0.070-0.070 0.1-0.11l0.83-0.62c0.010-0.010 0.010-0.020 0.020-0.030h0.020c0.59-0.54 0.99-1.1 1.27-1.77 0.74-1.7-0.57-3.34-1.44-4.42zM28.11 26.45c-0.22 0.52-0.54 0.96-1 1.39l-1.23 0.92c-1.11 0.72-3.49 1.62-6.94-0.43-2.66-1.58-5.58-4.25-8.46-7.71l-0.78-0.99c-2.71-3.59-4.62-7.040-5.52-9.95-1.17-3.8 0.31-5.83 1.29-6.71 0.1-0.090 0.2-0.18 0.3-0.26l0.9-0.67c0.54-0.34 1.050-0.53 1.63-0.62 1.24-0.19 2.24 1.12 2.98 2.070l0.18 0.22c1.53 1.94 1.68 2.86 1.63 3.23-0.050 0.42-0.68 0.96-1.24 1.43l-0.080 0.060-0.010 0.010c0 0.010-0.010 0.010-0.010 0.010l-0.85 0.79c-0.010 0-0.010 0.010-0.020 0.020 0 0-0.010 0.010-0.020 0.010-0.13 0.15-0.24 0.3-0.34 0.45-0.47 0.8-0.93 2.46-0.21 3.74 0.62 1.12 1.8 2.89 2.89 4.32 1.14 1.38 2.59 2.95 3.54 3.81 0.7 0.64 1.68 0.86 2.53 0.86 0.46 0 0.87-0.060 1.19-0.15 0.17-0.050 0.34-0.12 0.52-0.21 0.010 0 0.010-0.010 0.020-0.020h0.020l0.99-0.62c0.030-0.020 0.050-0.050 0.080-0.080l0.010 0.010c0.61-0.42 1.31-0.91 1.74-0.84 0.39 0.040 1.26 0.42 2.8 2.36l0.18 0.22c0.75 0.94 1.77 2.21 1.29 3.33z"></path>
</symbol>
</defs>
</svg>
