<svg xmlns="http://www.w3.org/2000/svg" width="32" height="32" fill="none">
  <defs>
    <clipPath id="a">
      <path fill="#fff" fill-opacity="0" d="M0-.5h32v32H0z"/>
    </clipPath>
  </defs>
  <path d="M0-.5h32v32H0z"/>
  <g clip-path="url(#a)">
    <path fill="#011C44" d="M16 9.75c-1.14 0-2.25.33-3.2.96-.95.64-1.68 1.53-2.12 2.58a5.753 5.753 0 0 0-.32 3.33 5.68 5.68 0 0 0 1.57 2.94c.8.81 1.83 1.35 2.94 1.57 1.12.23 2.27.11 3.33-.32a5.803 5.803 0 0 0 2.58-2.12c.63-.95.97-2.06.97-3.19A5.752 5.752 0 0 0 16 9.75Zm0 10a4.238 4.238 0 0 1-3.93-2.63c-.32-.78-.41-1.63-.24-2.45a4.22 4.22 0 0 1 3.34-3.34c.82-.17 1.67-.08 2.45.24a4.238 4.238 0 0 1 2.63 3.93c-.01 1.12-.46 2.2-1.25 3-.8.79-1.88 1.24-3 1.25Zm5.5-16.5h-11c-1.8 0-3.51.71-4.78 1.97A6.775 6.775 0 0 0 3.75 10v11c0 1.79.71 3.5 1.97 4.77a6.784 6.784 0 0 0 4.78 1.98h11c1.79 0 3.5-.72 4.77-1.98A6.778 6.778 0 0 0 28.25 21V10c0-1.8-.72-3.51-1.98-4.78a6.769 6.769 0 0 0-4.77-1.97ZM26.75 21c0 1.39-.56 2.72-1.54 3.71a5.28 5.28 0 0 1-3.71 1.54h-11c-1.4 0-2.73-.56-3.72-1.54A5.27 5.27 0 0 1 5.25 21V10c0-1.4.55-2.73 1.53-3.72.99-.98 2.32-1.53 3.72-1.53h11c1.39 0 2.72.55 3.71 1.53.98.99 1.54 2.32 1.54 3.72v11Zm-3-12c0 .24-.08.48-.22.69-.13.2-.33.37-.56.46-.22.09-.48.12-.72.07a1.33 1.33 0 0 1-.64-.34c-.17-.18-.29-.4-.34-.64-.05-.24-.02-.49.07-.72a1.25 1.25 0 0 1 1.16-.77c.33 0 .64.13.88.36.23.24.37.55.37.89Z"/>
  </g>
</svg>
