<svg width="81.000000" height="39.000000" viewBox="0 0 81 39" fill="none" xmlns="http://www.w3.org/2000/svg" xmlns:xlink="http://www.w3.org/1999/xlink">
	<desc>
			Created with Pixso.
	</desc>
	<defs/>
	<path id="logo" d="M6.97 17L-0.49 17L-0.49 -0.46L6.5 -0.46C10.35 -0.46 12.3 1.4 12.3 4.02C12.3 6.07 10.96 7.36 9.15 7.77L9.15 7.94C11.13 8.03 12.98 9.59 12.98 12.17C12.98 14.95 10.89 17 6.97 17ZM63 3.91L65.46 3.91L65.46 6.63L63 6.63L63 12.97C63 13.98 63.5 14.25 64.23 14.25C64.57 14.25 64.95 14.16 65.13 14.13L65.7 16.83C65.33 16.95 64.67 17.14 63.73 17.18C61.1 17.28 59.35 16.02 59.37 13.45L59.37 6.63L57.58 6.63L57.58 3.91L59.37 3.91L59.37 0.77L63 0.77L63 3.91ZM3.2 2.52L3.2 6.85L5.94 6.85C7.45 6.85 8.57 6.01 8.57 4.63C8.57 3.37 7.65 2.52 6 2.52L3.2 2.52ZM27.2 13.25C26.69 15.68 24.51 17.25 21.27 17.25C17.24 17.25 14.78 14.66 14.78 10.51C14.78 6.47 17.27 3.74 21.13 3.74C24.58 3.74 27.28 5.93 27.28 10.38L27.28 11.38L18.36 11.38L18.36 11.39C18.36 13.34 19.52 14.54 21.33 14.54C22.54 14.54 23.48 14.02 23.85 13.02L27.2 13.25ZM37.21 15.18C36.57 16.4 35.32 17.24 33.38 17.24C30.88 17.24 29.04 15.93 29.04 13.34C29.04 10.41 31.36 9.55 33.95 9.31C36.23 9.08 37.12 8.97 37.12 8.13L37.12 8.08C37.12 7 36.41 6.38 35.18 6.38C33.88 6.38 33.1 7.02 32.85 7.9L29.49 7.62C30 5.24 32.06 3.74 35.2 3.74C38.11 3.74 40.76 5.05 40.76 8.16L40.76 17L37.31 17L37.31 15.18L37.21 15.18ZM49.47 14.09C50.77 14.09 51.98 13.17 51.97 11.42L51.97 3.91L55.6 3.91L55.6 17L52.12 17L52.12 14.62L51.98 14.62C51.39 16.15 49.98 17.16 48.01 17.16C45.37 17.16 43.58 15.3 43.57 12.24L43.57 3.91L47.21 3.91L47.21 11.59C47.21 13.13 48.1 14.09 49.47 14.09ZM74.94 18.41C74.2 20.52 72.77 21.91 70.06 21.91C69.14 21.91 68.3 21.75 67.78 21.53L68.6 18.82C69.88 19.21 70.78 19.15 71.27 17.93L71.48 17.37L66.78 3.91L70.6 3.91L73.31 13.52L73.45 13.52L76.18 3.91L80.03 3.91L74.94 18.41ZM21.19 6.44C19.57 6.44 18.44 7.64 18.36 9.13L23.86 9.13C23.85 7.57 22.76 6.44 21.19 6.44ZM3.2 9.34L3.2 13.98L6.21 13.98C8.27 13.98 9.17 13.12 9.17 11.8C9.17 10.36 8.07 9.34 6.3 9.34L3.2 9.34ZM32.51 13.22C32.51 14.22 33.3 14.74 34.42 14.74C36.02 14.74 37.15 13.69 37.15 12.31L37.15 10.92C36.71 11.22 35.42 11.41 34.63 11.52C33.35 11.69 32.51 12.2 32.51 13.22ZM12.69 38L-0.67 38L-0.67 35.8L8.03 23.58L-0.69 23.58L-0.69 20.54L12.67 20.54L12.67 22.73L3.95 34.95L12.69 34.95L12.69 38ZM27.81 31.5C27.81 35.53 25.34 38.25 21.37 38.25C17.39 38.25 14.92 35.53 14.92 31.5C14.92 27.44 17.39 24.74 21.37 24.74C25.34 24.74 27.81 27.44 27.81 31.5ZM36.29 27.75C34.82 27.75 33.81 28.74 33.81 30.42L33.81 38L30.18 38L30.18 24.91L33.64 24.91L33.64 27.21L33.79 27.21C34.38 25.69 35.78 24.74 37.73 24.74C40.45 24.74 42.25 26.61 42.25 29.66L42.25 38L38.61 38L38.61 30.31C38.62 28.71 37.75 27.75 36.29 27.75ZM57 34.25C56.49 36.68 54.3 38.25 51.06 38.25C47.03 38.25 44.57 35.66 44.57 31.51C44.57 27.47 47.07 24.74 50.92 24.74C54.38 24.74 57.08 26.93 57.08 31.38L57.08 32.38L48.16 32.38L48.16 32.39C48.16 34.34 49.31 35.54 51.13 35.54C52.33 35.54 53.27 35.02 53.64 34.02L57 34.25ZM50.98 27.44C49.37 27.44 48.24 28.64 48.16 30.13L53.66 30.13C53.65 28.57 52.56 27.44 50.98 27.44ZM18.61 31.47C18.61 33.76 19.55 35.44 21.38 35.44C23.18 35.44 24.12 33.76 24.12 31.47C24.12 29.19 23.18 27.5 21.38 27.5C19.55 27.5 18.61 29.19 18.61 31.47Z" fill="#2B7FFF" fill-opacity="1.000000" fill-rule="evenodd"/>
</svg>
