<svg xmlns="http://www.w3.org/2000/svg" width="48" height="48" fill="none">
  <defs>
    <clipPath id="a">
      <path fill="#fff" fill-opacity="0" d="M0-.5h48v48H0z"/>
    </clipPath>
  </defs>
  <path d="M0-.5h48v48H0z"/>
  <g fill="#2B7FFF" clip-path="url(#a)">
    <path d="M13.1 17.57H-.19c-.41 0-.74.31-.74.71v4.25c0 .39.33.71.74.71h.74v16.29c0 .39.33.71.74.71h10.34c.4 0 .73-.32.73-.71V23.24h.74c.41 0 .74-.32.74-.71v-4.25c0-.4-.33-.71-.74-.71ZM4.98 31.03v-1.42h4.43V28.2H4.98v-1.42h5.91v9.21H4.98v-3.54h1.48v-1.42H4.98Zm5.91-5.67H4.24c-.41 0-.74.32-.74.71V36.7c0 .39.33.71.74.71h6.65v1.41H2.03V23.24h8.86v2.12Zm1.47-3.54H.55v-2.84h11.81v2.84Zm10.53-4.12v-5.18c0-.4-.33-.73-.74-.73h-.74V8.14h1.48V6.69h-8.13v1.45h5.17v3.65h-.74c-.4 0-.73.33-.73.73v5.18c-1.69.34-2.96 1.81-2.96 3.57v18.24c0 .4.33.73.74.73h8.86c.41 0 .74-.33.74-.73V21.27c0-1.76-1.27-3.23-2.95-3.57Zm-2.96-4.45h1.48v4.38h-1.48v-4.38Zm-.74 5.84h2.96c1.22 0 2.21.98 2.21 2.18V22h-7.38v-.73c0-1.2.99-2.18 2.21-2.18Zm5.17 16.77h-7.38V34.4h2.95v-1.45h-2.95v-9.49h7.38v12.4Zm-7.38 2.92v-1.46h7.38v1.46h-7.38Zm24.78-22.12H29.3c-.38 0-.69.32-.69.72v22.15c0 .39.31.71.69.71h12.46c.39 0 .7-.32.7-.71V17.38c0-.4-.31-.72-.7-.72Zm-.69 22.15H30V18.09h11.07v20.72Z"/>
    <path fill-rule="evenodd" d="M8.3 31.17h1.85v.91H8.3v-.91Zm12.93 1.81h1.84v1.82h-1.84v-1.82Z"/>
    <path d="M20.76 31.17c1.79 0 3.24-1.42 3.24-3.17s-1.45-3.18-3.24-3.18c-1.78 0-3.23 1.43-3.23 3.18 0 1.75 1.45 3.17 3.23 3.17Zm0-4.76c.9 0 1.62.71 1.62 1.59 0 .87-.72 1.58-1.62 1.58-.89 0-1.61-.71-1.61-1.58 0-.88.72-1.59 1.61-1.59Zm13.04-2.49h3.46c1.34 0 2.43-1.02 2.43-2.27s-1.09-2.27-2.43-2.27H33.8c-1.33 0-2.42 1.02-2.42 2.27s1.09 2.27 2.42 2.27Zm4.5-2.27c0 .53-.46.97-1.04.97h-1.03v-1.94h1.03c.58 0 1.04.43 1.04.97Zm-4.5-.97h1.04v1.94H33.8c-.57 0-1.04-.44-1.04-.97 0-.54.47-.97 1.04-.97Zm0 10.49h3.46c1.34 0 2.43-1.22 2.43-2.72 0-1.5-1.09-2.72-2.43-2.72H33.8c-1.33 0-2.42 1.22-2.42 2.72 0 1.5 1.09 2.72 2.42 2.72Zm4.5-2.72c0 .64-.46 1.17-1.04 1.17h-1.03v-2.34h1.03c.58 0 1.04.53 1.04 1.17Zm-4.5-1.17h1.04v2.34H33.8c-.57 0-1.04-.53-1.04-1.17 0-.64.47-1.17 1.04-1.17Zm0 10.24h3.46c1.34 0 2.43-1.22 2.43-2.72 0-1.5-1.09-2.72-2.43-2.72H33.8c-1.33 0-2.42 1.22-2.42 2.72 0 1.5 1.09 2.72 2.42 2.72Zm4.5-2.72c0 .64-.46 1.16-1.04 1.16h-1.03v-2.33h1.03c.58 0 1.04.53 1.04 1.17Zm-4.5-1.17h1.04v2.33H33.8c-.57 0-1.04-.52-1.04-1.16 0-.64.47-1.17 1.04-1.17Z"/>
  </g>
</svg>
