<svg xmlns="http://www.w3.org/2000/svg" width="32" height="32" fill="none">
  <defs>
    <clipPath id="a">
      <path fill="#fff" fill-opacity="0" d="M0-.5h32v32H0z"/>
    </clipPath>
  </defs>
  <path d="M0-.5h32v32H0z"/>
  <g clip-path="url(#a)">
    <path fill="#011C44" d="m27.65 22.45-.17-.21c-1.38-1.74-2.52-2.64-3.51-2.76-.85-.12-1.67.47-2.54 1.08l-.94.58c-.11.06-.22.1-.33.13-.54.16-1.92.25-2.7-.47-.91-.83-2.32-2.35-3.42-3.68-1.05-1.38-2.2-3.1-2.8-4.18-.51-.91-.09-2.19.2-2.67.05-.09.13-.18.21-.27l.82-.77c.02-.01.02-.02.03-.03.01-.01.02-.01.03-.02.75-.62 1.52-1.27 1.62-2.1.12-.98-.48-2.3-1.86-4.03l-.16-.22C11.27 1.74 9.99.09 8.14.37c-.73.1-1.38.35-2.05.77 0 .01-.01.01-.01.02-.01 0-.01 0-.02.01l-.93.69c-.01 0-.02.01-.02.02-.01.01-.02.01-.03.02-.11.09-.22.18-.32.28-.95.84-2.99 3.29-1.6 7.81.9 2.92 2.76 6.33 5.39 9.88l-.03.02 1.45 1.81.02-.01c2.84 3.37 5.74 5.98 8.4 7.55 1.78 1.06 3.32 1.41 4.6 1.41 1.68 0 2.88-.61 3.48-1l.38-.25c.04-.03.07-.07.1-.11l.83-.62c.01-.01.01-.02.02-.03h.02c.59-.54.99-1.1 1.27-1.77.74-1.7-.57-3.34-1.44-4.42Zm.46 4c-.22.52-.54.96-1 1.39l-1.23.92c-1.11.72-3.49 1.62-6.94-.43-2.66-1.58-5.58-4.25-8.46-7.71l-.78-.99c-2.71-3.59-4.62-7.04-5.52-9.95-1.17-3.8.31-5.83 1.29-6.71.1-.09.2-.18.3-.26l.9-.67c.54-.34 1.05-.53 1.63-.62 1.24-.19 2.24 1.12 2.98 2.07l.18.22c1.53 1.94 1.68 2.86 1.63 3.23-.05.42-.68.96-1.24 1.43l-.08.06-.01.01c0 .01-.01.01-.01.01l-.85.79c-.01 0-.01.01-.02.02 0 0-.01.01-.02.01-.13.15-.24.3-.34.45-.47.8-.93 2.46-.21 3.74.62 1.12 1.8 2.89 2.89 4.32 1.14 1.38 2.59 2.95 3.54 3.81.7.64 1.68.86 2.53.86.46 0 .87-.06 1.19-.15.17-.05.34-.12.52-.21.01 0 .01-.01.02-.02h.02l.99-.62c.03-.02.05-.05.08-.08l.01.01c.61-.42 1.31-.91 1.74-.84.39.04 1.26.42 2.8 2.36l.18.22c.75.94 1.77 2.21 1.29 3.33Z"/>
  </g>
</svg>
